<?xml version="1.0" encoding="utf-8"?>
<!-- Generator: Adobe Illustrator 19.1.0, SVG Export Plug-In . SVG Version: 6.00 Build 0)  -->
<!DOCTYPE svg PUBLIC "-//W3C//DTD SVG 1.1//EN" "http://www.w3.org/Graphics/SVG/1.1/DTD/svg11.dtd">
<svg version="1.1" id="Layer_1" xmlns="http://www.w3.org/2000/svg" xmlns:xlink="http://www.w3.org/1999/xlink" x="0px" y="0px"
	 viewBox="0 0 40 40" style="enable-background:new 0 0 40 40;" xml:space="preserve">
<g id="delete-node">
	<polygon points="31.2,6.9 19.9,18.2 8.6,6.9 6.8,8.7 18.1,20 6.8,31.3 8.6,33.1 19.9,21.8 31.2,33.1 33,31.3 21.8,20 33,8.7 	"/>
</g>
<g id="delete-input">
	<path d="M26.1,18.1H13.7c-1,0-1.9,0.8-1.9,1.9c0,1,0.8,1.9,1.9,1.9h12.4c1,0,1.9-0.8,1.9-1.9C28,19,27.1,18.1,26.1,18.1z"/>
</g>
<g id="add-input">
	<path d="M26.1,18.1h-4.3v-4.3c0-1-0.8-1.9-1.9-1.9c-1,0-1.9,0.8-1.9,1.9v4.3h-4.3c-1,0-1.9,0.8-1.9,1.9s0.8,1.9,1.9,1.9H18v4.3
		c0,1,0.8,1.9,1.9,1.9s1.9-0.8,1.9-1.9v-4.3h4.3c1,0,1.9-0.8,1.9-1.9S27.1,18.1,26.1,18.1z"/>
</g>
<g id="connector-border-right">
	<path d="M19.8,40c-11,0-19.9-9-19.9-20S8.8,0,19.8,0c2.2,0,4,1.8,4,4s-1.8,4-4,4C13.2,8,7.9,13.4,7.9,20s5.3,12,11.9,12
		c2.2,0,4,1.8,4,4S22,40,19.8,40z"/>
</g>
<g id="connector-border-left">
	<path d="M20.1,0C31.1,0,40,9,40,20s-8.9,20-19.9,20c-2.2,0-4-1.8-4-4s1.8-4,4-4C26.7,32,32,26.6,32,20S26.7,8,20.1,8
		c-2.2,0-4-1.8-4-4S17.8,0,20.1,0z"/>
</g>
<g id="expand">
	<path d="M27.7,23l-5.3-5.3l-1.8-1.8c-0.1-0.1-0.2-0.1-0.2-0.2h-0.1h-0.1h-0.1c-0.1,0-0.1,0-0.2,0s-0.2,0.1-0.2,0.2l-1.8,1.8l0,0
		L12.3,23c-0.3,0.3-0.3,0.8,0,1.1c0.1,0.1,0.3,0.2,0.5,0.2s0.4-0.1,0.5-0.2l5.3-5.3l0,0l0,0l1.2-1.2l1.2,1.2l0,0l0,0l5.3,5.3
		c0.1,0.1,0.3,0.2,0.5,0.2s0.4-0.1,0.5-0.2C27.9,23.8,27.9,23.3,27.7,23z"/>
</g>
<g id="collapse">
	<path d="M27.7,15.9c-0.3-0.3-0.8-0.3-1.1,0l-5.3,5.3l0,0l0,0L20,22.5l-1.2-1.2l0,0l0,0L13.5,16c-0.3-0.3-0.8-0.3-1.1,0
		s-0.3,0.8,0,1.1l5.3,5.3l1.8,1.8c0.1,0.1,0.3,0.2,0.5,0.2s0.4-0.1,0.5-0.2l1.8-1.8l5.3-5.3C27.9,16.7,27.9,16.2,27.7,15.9z"/>
</g>
</svg>
