<?xml version="1.0" encoding="utf-8"?>
<!-- Generator: Adobe Illustrator 19.1.0, SVG Export Plug-In . SVG Version: 6.00 Build 0)  -->
<!DOCTYPE svg PUBLIC "-//W3C//DTD SVG 1.1//EN" "http://www.w3.org/Graphics/SVG/1.1/DTD/svg11.dtd">
<svg version="1.1" id="Layer_1" xmlns="http://www.w3.org/2000/svg" xmlns:xlink="http://www.w3.org/1999/xlink" x="0px" y="0px"
	 viewBox="0 0 40 40" enable-background="new 0 0 40 40" xml:space="preserve">
<g id="delete-node">
	<polygon points="31.2,6.9 19.9,18.2 8.6,6.9 6.8,8.7 18.1,20 6.8,31.3 8.6,33.1 19.9,21.8 31.2,33.1 33,31.3 
		21.8,20 33,8.7 	"/>
</g>
<g id="delete-input">
	<path d="M26.1,18.1H13.7c-1,0-1.9,0.8-1.9,1.9c0,1,0.8,1.9,1.9,1.9h12.4c1,0,1.9-0.8,1.9-1.9
		C28,19,27.1,18.1,26.1,18.1z"/>
</g>
<g id="add-input">
	<path  d="M26.1,18.1h-4.3v-4.3c0-1-0.8-1.9-1.9-1.9c-1,0-1.9,0.8-1.9,1.9v4.3h-4.3c-1,0-1.9,0.8-1.9,1.9
		s0.8,1.9,1.9,1.9H18v4.3c0,1,0.8,1.9,1.9,1.9s1.9-0.8,1.9-1.9v-4.3h4.3c1,0,1.9-0.8,1.9-1.9S27.1,18.1,26.1,18.1z"/>
</g>
<g id="connector-border-right">
	<path  d="M19.8,40c-11,0-19.9-9-19.9-20S8.8,0,19.8,0c2.2,0,4,1.8,4,4s-1.8,4-4,4C13.2,8,7.9,13.4,7.9,20
		s5.3,12,11.9,12c2.2,0,4,1.8,4,4S22,40,19.8,40z"/>
</g>
<g id="connector-border-left">
	<path  d="M20.1,0C31.1,0,40,9,40,20s-8.9,20-19.9,20c-2.2,0-4-1.8-4-4s1.8-4,4-4C26.7,32,32,26.6,32,20
		S26.7,8,20.1,8c-2.2,0-4-1.8-4-4S17.8,0,20.1,0z"/>
</g>
</svg>
