<?xml version="1.0" encoding="utf-8"?>
<!-- Generator: Adobe Illustrator 19.1.0, SVG Export Plug-In . SVG Version: 6.00 Build 0)  -->
<!DOCTYPE svg PUBLIC "-//W3C//DTD SVG 1.1//EN" "http://www.w3.org/Graphics/SVG/1.1/DTD/svg11.dtd">
<svg version="1.1" xmlns="http://www.w3.org/2000/svg" xmlns:xlink="http://www.w3.org/1999/xlink" x="0px" y="0px"
	 viewBox="0 0 256 256" enable-background="new 0 0 256 256" xml:space="preserve">
<g id="saved">
	<path opacity="0.9" fill="#FFF000" d="M192,128c0,35.3-28.6,63.9-63.9,63.9c-35.3,0-63.9-28.6-63.9-63.9
		c0-35.3,28.6-63.9,63.9-63.9C163.4,64.1,192,92.7,192,128z"/>
	<path opacity="0.5" fill="#10C1FF" d="M192,128c0,35.3-28.6,63.9-63.9,63.9c-35.3,0-63.9-28.6-63.9-63.9
		c0-35.3,28.6-63.9,63.9-63.9C163.4,64.1,192,92.7,192,128z"/>
	<path fill="#FFFF00" d="M128.1,64.1c35.3,0,63.9,28.6,63.9,63.9c0,35.3-28.6,63.9-63.9,63.9c-35.3,0-63.9-28.6-63.9-63.9
		C64.2,92.7,92.8,64.1,128.1,64.1 M128.1,52.1c-41.8,0-75.9,34-75.9,75.9c0,41.8,34,75.9,75.9,75.9c41.8,0,75.9-34,75.9-75.9
		C204,86.2,170,52.1,128.1,52.1L128.1,52.1z"/>
	<path fill="#FFFFFF" d="M127.1,161c-1,0-2-0.2-3-0.7c-3.1-1.6-4.3-5.5-2.7-8.6l25.3-47.9c1.6-3.1,5.5-4.3,8.6-2.7
		c3.1,1.6,4.3,5.5,2.7,8.6l-25.3,47.9C131.6,159.8,129.4,161,127.1,161z"/>
	<path fill="#FFFFFF" d="M127.1,161c-1.9,0-3.8-0.8-5-2.5l-21.7-28.1c-2.1-2.8-1.6-6.8,1.1-8.9c2.8-2.1,6.8-1.6,8.9,1.1l21.7,28.1
		c2.1,2.8,1.6,6.8-1.1,8.9C129.9,160.6,128.5,161,127.1,161z"/>
</g>
<g id="notsaved">
	<path opacity="0.9" fill="#FFF000" d="M159.8,129.2c0,35.3-28.6,63.9-63.9,63.9c-35.3,0-63.9-28.6-63.9-63.9
		c0-35.3,28.6-63.9,63.9-63.9C131.2,65.3,159.8,93.9,159.8,129.2z"/>
	<g opacity="0.5">
		<path fill="#10C1FF" d="M223.7,129.2c0,35.3-28.6,63.9-63.9,63.9c-35.3,0-63.9-28.6-63.9-63.9c0-35.3,28.6-63.9,63.9-63.9
			C195.1,65.3,223.7,93.9,223.7,129.2z"/>
	</g>
</g>
<g id="quirkbots">
	<g>
		<path fill="#333333" d="M128.2,31.3c7.7,0,13.9,6.2,13.9,13.9v35.7c1.7,0.4,3.3,0.9,4.9,1.4c2.8-1.6,6-2.5,9.4-2.5
			c10.4,0,19,8.5,19,19c0,1.4-0.2,2.7-0.4,3.9c1,1.4,2,2.7,2.9,4.2l33.9-11c1.4-0.5,2.9-0.7,4.3-0.7c5.8,0,11.3,3.7,13.2,9.6
			c2.4,7.3-1.6,15.1-8.9,17.5l-33.9,11c0.1,1.4,0.2,2.9,0.2,4.3c0,14.4-5.2,27.5-13.9,37.7l21,28.9c4.5,6.2,3.1,14.9-3.1,19.4
			c-2.5,1.8-5.3,2.7-8.1,2.7c-4.3,0-8.5-2-11.2-5.7l-21-28.9c-6.8,2.8-14.3,4.4-22.1,4.4c-7.8,0-15.3-1.6-22.1-4.4l-21,28.9
			c-2.7,3.7-6.9,5.7-11.2,5.7c-2.8,0-5.7-0.9-8.1-2.7c-6.2-4.5-7.6-13.2-3.1-19.4l21-28.9c-8.6-10.2-13.9-23.3-13.9-37.7
			c0-1.5,0.1-2.9,0.2-4.3l-33.9-11c-7.3-2.4-11.3-10.2-8.9-17.5c1.9-5.9,7.3-9.6,13.2-9.6c1.4,0,2.9,0.2,4.3,0.7l34,11
			c0.9-1.4,1.9-2.8,2.9-4.2c-0.3-1.3-0.4-2.6-0.4-3.9c0-10.4,8.5-19,19-19c3.4,0,6.7,0.9,9.4,2.5c1.6-0.6,3.2-1,4.9-1.4V45.1
			C114.3,37.5,120.5,31.3,128.2,31.3 M128.2,19.3c-14.3,0-25.9,11.6-25.9,25.9v22.7c-0.8-0.1-1.6-0.1-2.4-0.1
			c-14.6,0-26.8,10.1-30.1,23.7l-21.6-7c-2.6-0.8-5.3-1.3-8-1.3c-11.2,0-21.1,7.2-24.6,17.9c-4.4,13.6,3.1,28.2,16.6,32.6l25.6,8.3
			c0.7,11.9,4.5,23.4,10.9,33.4l-15.8,21.8c-8.4,11.6-5.8,27.8,5.7,36.1c4.4,3.2,9.7,4.9,15.2,4.9c8.3,0,16.1-4,20.9-10.7l15.8-21.8
			c5.7,1.5,11.6,2.2,17.6,2.2c6,0,11.8-0.7,17.6-2.2l15.8,21.8c4.8,6.7,12.7,10.7,20.9,10.7c5.5,0,10.7-1.7,15.2-4.9
			c11.5-8.4,14.1-24.6,5.7-36.1l-15.8-21.8c6.4-10,10.1-21.5,10.9-33.4l25.6-8.3c13.6-4.4,21-19,16.6-32.6
			c-3.5-10.7-13.4-17.9-24.6-17.9c-2.7,0-5.4,0.4-8,1.3l-21.6,7c-3.3-13.6-15.5-23.7-30.1-23.7c-0.8,0-1.6,0-2.4,0.1V45.1
			C154,30.9,142.4,19.3,128.2,19.3L128.2,19.3z"/>
	</g>
	<line fill="none" x1="79" y1="107" x2="85" y2="107"/>
	<line fill="none" x1="81.4" y1="102.6" x2="83.1" y2="107"/>
</g>
<g id="quirkbots-hover">
	<g>
		<path fill="#333333" d="M128.2,31.3c7.7,0,13.9,6.2,13.9,13.9v35.7c1.7,0.4,3.3,0.9,4.9,1.4c2.8-1.6,6-2.5,9.4-2.5
			c10.4,0,19,8.5,19,19c0,1.4-0.2,2.7-0.4,3.9c1,1.4,2,2.7,2.9,4.2l33.9-11c1.4-0.5,2.9-0.7,4.3-0.7c5.8,0,11.3,3.7,13.2,9.6
			c2.4,7.3-1.6,15.1-8.9,17.5l-33.9,11c0.1,1.4,0.2,2.9,0.2,4.3c0,14.4-5.2,27.5-13.9,37.7l21,28.9c4.5,6.2,3.1,14.9-3.1,19.4
			c-2.5,1.8-5.3,2.7-8.1,2.7c-4.3,0-8.5-2-11.2-5.7l-21-28.9c-6.8,2.8-14.3,4.4-22.1,4.4c-7.8,0-15.3-1.6-22.1-4.4l-21,28.9
			c-2.7,3.7-6.9,5.7-11.2,5.7c-2.8,0-5.7-0.9-8.1-2.7c-6.2-4.5-7.6-13.2-3.1-19.4l21-28.9c-8.6-10.2-13.9-23.3-13.9-37.7
			c0-1.5,0.1-2.9,0.2-4.3l-33.9-11c-7.3-2.4-11.3-10.2-8.9-17.5c1.9-5.9,7.3-9.6,13.2-9.6c1.4,0,2.9,0.2,4.3,0.7l34,11
			c0.9-1.4,1.9-2.8,2.9-4.2c-0.3-1.3-0.4-2.6-0.4-3.9c0-10.4,8.5-19,19-19c3.4,0,6.7,0.9,9.4,2.5c1.6-0.6,3.2-1,4.9-1.4V45.1
			C114.3,37.5,120.5,31.3,128.2,31.3 M128.2,19.3c-14.3,0-25.9,11.6-25.9,25.9v22.7c-0.8-0.1-1.6-0.1-2.4-0.1
			c-14.6,0-26.8,10.1-30.1,23.7l-21.6-7c-2.6-0.8-5.3-1.3-8-1.3c-11.2,0-21.1,7.2-24.6,17.9c-4.4,13.6,3.1,28.2,16.6,32.6l25.6,8.3
			c0.7,11.9,4.5,23.4,10.9,33.4l-15.8,21.8c-8.4,11.6-5.8,27.8,5.7,36.1c4.4,3.2,9.7,4.9,15.2,4.9c8.3,0,16.1-4,20.9-10.7l15.8-21.8
			c5.7,1.5,11.6,2.2,17.6,2.2c6,0,11.8-0.7,17.6-2.2l15.8,21.8c4.8,6.7,12.7,10.7,20.9,10.7c5.5,0,10.7-1.7,15.2-4.9
			c11.5-8.4,14.1-24.6,5.7-36.1l-15.8-21.8c6.4-10,10.1-21.5,10.9-33.4l25.6-8.3c13.6-4.4,21-19,16.6-32.6
			c-3.5-10.7-13.4-17.9-24.6-17.9c-2.7,0-5.4,0.4-8,1.3l-21.6,7c-3.3-13.6-15.5-23.7-30.1-23.7c-0.8,0-1.6,0-2.4,0.1V45.1
			C154,30.9,142.4,19.3,128.2,19.3L128.2,19.3z"/>
	</g>
	<line fill="none" x1="79" y1="107" x2="85" y2="107"/>
	<line fill="none" x1="81.4" y1="102.6" x2="83.1" y2="107"/>
	<path fill="#FFFF00" d="M128,31.3c7.7,0,13.9,6.2,13.9,13.9v35.7c1.7,0.4,3.3,0.9,4.9,1.4c2.8-1.6,6-2.5,9.4-2.5
		c10.4,0,19,8.5,19,19c0,1.4-0.2,2.7-0.4,3.9c1,1.4,2,2.7,2.9,4.2l33.9-11c1.4-0.5,2.9-0.7,4.3-0.7c5.8,0,11.3,3.7,13.2,9.6
		c2.4,7.3-1.6,15.1-8.9,17.5l-33.9,11c0.1,1.4,0.2,2.9,0.2,4.3c0,14.4-5.2,27.5-13.9,37.7l21,28.9c4.5,6.2,3.1,14.9-3.1,19.4
		c-2.5,1.8-5.3,2.7-8.1,2.7c-4.3,0-8.5-2-11.2-5.7l-21-28.9c-6.8,2.8-14.3,4.4-22.1,4.4c-7.8,0-15.3-1.6-22.1-4.4l-21,28.9
		c-2.7,3.7-6.9,5.7-11.2,5.7c-2.8,0-5.7-0.9-8.1-2.7c-6.2-4.5-7.6-13.2-3.1-19.4l21-28.9c-8.6-10.2-13.9-23.3-13.9-37.7
		c0-1.5,0.1-2.9,0.2-4.3l-33.9-11c-7.3-2.4-11.3-10.2-8.9-17.5c1.9-5.9,7.3-9.6,13.2-9.6c1.4,0,2.9,0.2,4.3,0.7l34,11
		c0.9-1.4,1.9-2.8,2.9-4.2c-0.3-1.3-0.4-2.6-0.4-3.9c0-10.4,8.5-19,19-19c3.4,0,6.7,0.9,9.4,2.5c1.6-0.6,3.2-1,4.9-1.4V45.1
		C114.1,37.5,120.3,31.3,128,31.3"/>
</g>
<g id="clone">
	<path fill="#333333" d="M92.5,205c-5.4,0-10.9-0.6-16.2-1.7c-3.2-0.7-5.3-3.9-4.6-7.1c0.7-3.2,3.9-5.3,7.1-4.6
		c4.8,1,9.7,1.5,14.7,1.4c1.5,0,3.1-0.1,4.6-0.2c3.3-0.3,6.2,2.2,6.5,5.5c0.3,3.3-2.2,6.2-5.5,6.5c-1.8,0.2-3.6,0.2-5.4,0.3
		C93.3,205,92.9,205,92.5,205z"/>
	<path fill="#333333" d="M48.8,189.9c-1.3,0-2.6-0.4-3.7-1.3c-6-4.7-11.3-10.3-15.7-16.6c-1.9-2.7-1.2-6.5,1.5-8.4
		c2.7-1.9,6.5-1.2,8.4,1.5c3.7,5.3,8.2,10,13.3,14c2.6,2,3.1,5.8,1,8.4C52.3,189.1,50.6,189.9,48.8,189.9z"/>
	<path fill="#333333" d="M22.4,145.1c-2.9,0-5.5-2.1-5.9-5.1c-0.6-3.5-0.9-7.2-0.9-10.8c0-0.4,0-0.8,0-1.2c0-3.6,0.3-7.2,0.8-10.8
		c0.5-3.3,3.5-5.6,6.8-5.1c3.3,0.5,5.6,3.5,5.1,6.8c-0.4,3-0.6,6.1-0.6,9.1c0,0.4,0,0.7,0,1.1c0,3.1,0.3,6.1,0.8,9.1
		c0.5,3.3-1.7,6.3-5,6.9C23,145.1,22.7,145.1,22.4,145.1z"/>
	<path fill="#333333" d="M33.7,94.3c-1.2,0-2.3-0.3-3.4-1c-2.7-1.9-3.5-5.6-1.6-8.3c4.3-6.4,9.5-12,15.5-16.8
		c2.6-2.1,6.4-1.7,8.4,0.9c2.1,2.6,1.7,6.4-0.9,8.4c-5,4.1-9.4,8.9-13.1,14.2C37.5,93.4,35.6,94.3,33.7,94.3z"/>
	<path fill="#333333" d="M76.5,64.8c-2.7,0-5.2-1.9-5.8-4.7c-0.7-3.2,1.3-6.4,4.5-7.2c5.3-1.2,10.7-1.9,16.1-2c2.2,0,4.5,0,6.7,0.2
		c3.3,0.2,5.8,3.1,5.6,6.4c-0.2,3.3-3.1,5.8-6.4,5.6c-1.9-0.1-3.8-0.2-5.6-0.2c-4.6,0.1-9.2,0.6-13.6,1.6
		C77.4,64.8,77,64.8,76.5,64.8z"/>
	<path fill="#333333" d="M163.5,205c-42.4,0-77-34.5-77-77c0-42.4,34.5-77,77-77c42.4,0,77,34.5,77,77
		C240.5,170.4,205.9,205,163.5,205z M163.5,63c-35.8,0-65,29.1-65,65c0,35.8,29.2,65,65,65c35.8,0,65-29.2,65-65
		C228.5,92.2,199.3,63,163.5,63z"/>
	<g>
		<path fill="#333333" d="M174.1,134.4H64.7c-3.3,0-6-2.7-6-6c0-3.3,2.7-6,6-6h109.4c3.3,0,6,2.7,6,6
			C180.1,131.8,177.4,134.4,174.1,134.4z"/>
		<path fill="#333333" d="M174.1,134.4c-1.5,0-3.1-0.6-4.2-1.8l-25-25c-2.3-2.3-2.3-6.1,0-8.5c2.3-2.3,6.1-2.3,8.5,0l25,25
			c2.3,2.3,2.3,6.1,0,8.5C177.1,133.9,175.6,134.4,174.1,134.4z"/>
		<path fill="#333333" d="M149.9,158.6c-1.5,0-3.1-0.6-4.2-1.8c-2.3-2.3-2.3-6.1,0-8.5l24.2-24.1c2.3-2.3,6.1-2.3,8.5,0
			c2.3,2.3,2.3,6.1,0,8.5l-24.2,24.2C153,158,151.5,158.6,149.9,158.6z"/>
	</g>
</g>
<g id="clone-hover">
	<path fill="#FFFF00" d="M234.5,128.7c0,39.2-31.8,71-71,71c-39.2,0-71-31.8-71-71c0-39.2,31.8-71,71-71
		C202.7,57.8,234.5,89.6,234.5,128.7z"/>
	<path fill="#333333" d="M92.5,205c-5.4,0-10.9-0.6-16.2-1.7c-3.2-0.7-5.3-3.9-4.6-7.1c0.7-3.2,3.9-5.3,7.1-4.6
		c4.8,1,9.7,1.5,14.7,1.4c1.5,0,3.1-0.1,4.6-0.2c3.3-0.3,6.2,2.2,6.5,5.5c0.3,3.3-2.2,6.2-5.5,6.5c-1.8,0.2-3.6,0.2-5.4,0.3
		C93.3,205,92.9,205,92.5,205z"/>
	<path fill="#333333" d="M48.8,189.9c-1.3,0-2.6-0.4-3.7-1.3c-6-4.7-11.3-10.3-15.7-16.6c-1.9-2.7-1.2-6.5,1.5-8.4
		c2.7-1.9,6.5-1.2,8.4,1.5c3.7,5.3,8.2,10,13.3,14c2.6,2,3.1,5.8,1,8.4C52.3,189.1,50.6,189.9,48.8,189.9z"/>
	<path fill="#333333" d="M22.4,145.1c-2.9,0-5.5-2.1-5.9-5.1c-0.6-3.5-0.9-7.2-0.9-10.8c0-0.4,0-0.8,0-1.2c0-3.6,0.3-7.2,0.8-10.8
		c0.5-3.3,3.5-5.6,6.8-5.1c3.3,0.5,5.6,3.5,5.1,6.8c-0.4,3-0.6,6.1-0.6,9.1c0,0.4,0,0.7,0,1.1c0,3.1,0.3,6.1,0.8,9.1
		c0.5,3.3-1.7,6.3-5,6.9C23,145.1,22.7,145.1,22.4,145.1z"/>
	<path fill="#333333" d="M33.7,94.3c-1.2,0-2.3-0.3-3.4-1c-2.7-1.9-3.5-5.6-1.6-8.3c4.3-6.4,9.5-12,15.5-16.8
		c2.6-2.1,6.4-1.7,8.4,0.9c2.1,2.6,1.7,6.4-0.9,8.4c-5,4.1-9.4,8.9-13.1,14.2C37.5,93.4,35.6,94.3,33.7,94.3z"/>
	<path fill="#333333" d="M76.5,64.8c-2.7,0-5.2-1.9-5.8-4.7c-0.7-3.2,1.3-6.4,4.5-7.2c5.3-1.2,10.7-1.9,16.1-2c2.2,0,4.5,0,6.7,0.2
		c3.3,0.2,5.8,3.1,5.6,6.4c-0.2,3.3-3.1,5.8-6.4,5.6c-1.9-0.1-3.8-0.2-5.6-0.2c-4.6,0.1-9.2,0.6-13.6,1.6
		C77.4,64.8,77,64.8,76.5,64.8z"/>
	<path fill="#333333" d="M163.5,205c-42.4,0-77-34.5-77-77c0-42.4,34.5-77,77-77c42.4,0,77,34.5,77,77
		C240.5,170.4,205.9,205,163.5,205z M163.5,63c-35.8,0-65,29.1-65,65c0,35.8,29.2,65,65,65c35.8,0,65-29.2,65-65
		C228.5,92.2,199.3,63,163.5,63z"/>
	<g>
		<path fill="#333333" d="M174.1,134.4H64.7c-3.3,0-6-2.7-6-6c0-3.3,2.7-6,6-6h109.4c3.3,0,6,2.7,6,6
			C180.1,131.8,177.4,134.4,174.1,134.4z"/>
		<path fill="#333333" d="M174.1,134.4c-1.5,0-3.1-0.6-4.2-1.8l-25-25c-2.3-2.3-2.3-6.1,0-8.5c2.3-2.3,6.1-2.3,8.5,0l25,25
			c2.3,2.3,2.3,6.1,0,8.5C177.1,133.9,175.6,134.4,174.1,134.4z"/>
		<path fill="#333333" d="M149.9,158.6c-1.5,0-3.1-0.6-4.2-1.8c-2.3-2.3-2.3-6.1,0-8.5l24.2-24.1c2.3-2.3,6.1-2.3,8.5,0
			c2.3,2.3,2.3,6.1,0,8.5l-24.2,24.2C153,158,151.5,158.6,149.9,158.6z"/>
	</g>
</g>
</svg>
