<svg xmlns="http://www.w3.org/2000/svg" width="93.958" height="36.253"><path fill="#FFF" d="M5.732 16.3c0-1.58.214-3 .645-4.26.43-1.26 1.035-2.33 1.815-3.21.78-.88 1.71-1.555 2.79-2.025s2.26-.705 3.54-.705c1.2 0 2.25.24 3.15.72s1.64 1.04 2.22 1.68l-1.41 1.59c-.52-.54-1.1-.975-1.74-1.305-.64-.33-1.38-.495-2.22-.495-.94 0-1.796.185-2.565.555-.77.37-1.425.9-1.965 1.59s-.955 1.525-1.245 2.505c-.29.98-.436 2.08-.436 3.3 0 1.24.15 2.355.44 3.345.29.99.706 1.835 1.246 2.536.54.7 1.194 1.24 1.965 1.62.77.38 1.625.57 2.564.57.9 0 1.7-.19 2.4-.57.7-.38 1.37-.92 2.01-1.62l1.44 1.53c-.78.9-1.66 1.6-2.64 2.1-.98.5-2.1.75-3.36.75-1.24 0-2.384-.23-3.435-.69-1.05-.46-1.96-1.12-2.73-1.99-.77-.87-1.375-1.94-1.815-3.21-.438-1.27-.658-2.706-.658-4.306zm25.02 10.2c-1.12 0-2.14-.24-3.06-.72-.92-.48-1.716-1.165-2.386-2.055s-1.19-1.97-1.56-3.24c-.37-1.27-.555-2.694-.555-4.275 0-1.58.19-2.995.56-4.245s.89-2.31 1.56-3.18 1.46-1.535 2.38-1.995c.92-.46 1.94-.69 3.06-.69 1.1 0 2.115.235 3.045.705.93.47 1.73 1.14 2.4 2.01.67.87 1.19 1.93 1.56 3.18.37 1.25.555 2.655.555 4.215 0 1.58-.185 3.005-.555 4.276-.37 1.27-.89 2.35-1.56 3.24-.67.89-1.47 1.574-2.4 2.055-.93.48-1.945.72-3.045.72zm0-2.19c.74 0 1.42-.19 2.04-.57.62-.38 1.145-.924 1.575-1.635.43-.71.765-1.56 1.005-2.55.24-.99.36-2.104.36-3.345 0-1.22-.12-2.32-.36-3.3s-.575-1.81-1.005-2.49c-.43-.68-.955-1.205-1.575-1.575s-1.3-.555-2.04-.555c-.76 0-1.445.185-2.055.555-.61.37-1.13.895-1.56 1.575-.43.68-.766 1.51-1.006 2.49-.24.98-.36 2.08-.36 3.3 0 1.24.12 2.355.36 3.345.24.99.58 1.84 1.01 2.55.43.71.95 1.256 1.56 1.635.61.38 1.295.57 2.056.57zm11.55-17.85h4.8c2.98 0 5.245.84 6.794 2.52 1.55 1.68 2.326 4.09 2.326 7.23 0 1.56-.195 2.955-.586 4.185-.39 1.23-.965 2.27-1.725 3.12s-1.694 1.5-2.82 1.95c-1.114.45-2.41.675-3.864.675h-4.92V6.46zm4.65 17.64c2.24 0 3.915-.69 5.024-2.07 1.11-1.38 1.666-3.32 1.666-5.82 0-2.5-.555-4.41-1.666-5.73-1.11-1.32-2.785-1.98-5.023-1.98h-2.16v15.6h2.16zm14.25-17.64H73.35v2.1h-9.628v6.18h8.13v2.13h-8.13v7.14h9.93v2.13h-12.45V6.46zm20.46 24.51c1.24-.56 2.17-1.235 2.79-2.025.62-.79.95-1.785.99-2.984-.1.02-.194.04-.284.05s-.186.015-.285.015c-.64 0-1.19-.184-1.65-.554-.46-.37-.69-.935-.69-1.695 0-.738.24-1.304.72-1.693.48-.39 1.04-.584 1.68-.584.9 0 1.576.347 2.025 1.036.45.69.676 1.626.676 2.806 0 1.76-.465 3.246-1.395 4.456-.937 1.21-2.23 2.126-3.89 2.747l-.69-1.562zm.66-17.73c0-.76.234-1.375.705-1.845.47-.47 1.045-.705 1.725-.705s1.256.235 1.725.705c.47.47.705 1.085.705 1.845s-.234 1.37-.705 1.83c-.47.46-1.045.69-1.725.69s-1.254-.23-1.725-.69-.705-1.07-.705-1.83z"/></svg>