<svg id="Layer_1" xmlns="http://www.w3.org/2000/svg" viewBox="76 -35.7 421.9 92.7"><style>.st0{fill:none;stroke:#FFFFFF;stroke-width:16;stroke-linecap:round;stroke-linejoin:round;stroke-miterlimit:10;} .st1{fill:#FFFFFF;} .st2{opacity:0.5;fill:#EB008A;enable-background:new ;} .st3{fill:#FFF000;} .st4{opacity:0.5;fill:#00ACEE;enable-background:new ;} .st5{fill:#F57845;} .st6{fill:none;stroke:#7FCE77;stroke-width:8;stroke-linecap:round;stroke-miterlimit:10;} .st7{opacity:0.5;fill:none;stroke:#00ACEE;stroke-width:8;stroke-linecap:round;stroke-miterlimit:10;enable-background:new ;} .st8{opacity:0.5;fill:none;stroke:#EB008A;stroke-width:8;stroke-linecap:round;stroke-linejoin:round;stroke-miterlimit:10;enable-background:new ;} .st9{opacity:0.5;fill:none;stroke:#EB008A;stroke-width:8;stroke-linecap:round;stroke-miterlimit:10;enable-background:new ;} .st10{fill:#7FD5F6;}</style><path class="st0" d="M214.7 33.9v-52m24 52v-52m-56 52v-44m-36 32v-20m48 32v-32m103.9 0h16m-8-12v36.4c0 4.2 3.4 7.6 7.6 7.6m-189.5-8v6.7c0 4.4 3.6 8 8 8m38-6.7v-32m24 16c0-8.8 7.2-16 16-16m40 32h-16l-16-16 16-16h16"/><circle class="st1" cx="282.6" cy="17.9" r="24"/><circle class="st1" cx="182.7" cy="-10.1" r="16"/><circle class="st1" cx="116.7" cy="8" r="34"/><circle class="st1" cx="158.7" cy="21.9" r="20.1"/><circle class="st1" cx="250.6" cy="17.9" r="24"/><circle class="st2" cx="282.6" cy="17.9" r="20"/><circle class="st3" cx="116.7" cy="7.9" r="30"/><circle class="st1" cx="116.7" cy="7.9" r="22"/><circle class="st4" cx="116.7" cy="7.9" r="26"/><circle class="st2" cx="116.7" cy="25.9" r="12"/><circle class="st3" cx="182.7" cy="-10.1" r="11.9"/><circle class="st3" cx="158.7" cy="21.9" r="12"/><circle class="st3" cx="250.7" cy="17.9" r="16"/><circle class="st5" cx="282.6" cy="17.9" r="16"/><circle class="st3" cx="282.6" cy="17.9" r="12"/><circle class="st4" cx="182.7" cy="-10.1" r="8"/><path class="st6" d="M214.7 33.9v-52"/><path class="st7" d="M238.7 33.9v-52"/><path class="st6" d="M194.7 17.9v-16"/><path class="st7" d="M314.2 33.9c-4.2 0-7.6-3.4-7.6-7.6V1.9m-159.9 20v-20m48 32v-16m103.9-16h16m-63.9 0c8.8 0 16 7.2 16 16s-7.2 16-16 16m0 0h-12"/><path class="st8" d="M146.7 21.9c0 6.6 5.4 12 12 12s12-5.4 12-12"/><path class="st7" d="M306.6-10.1v12m-135.9 20v-20"/><path class="st9" d="M170.7 21.9v12"/><path class="st7" d="M194.7 17.9c0-8.8 7.2-16 16-16m40 0h-12"/><path class="st9" d="M214.7 21.9l20-20m-16 16l16 16m-52 0v-44"/><circle class="st4" cx="182.7" cy="-10.1" r="4"/><circle class="st10" cx="116.7" cy="25.9" r="4"/><path class="st9" d="M124.7 25.9v6.7c0 4.4 3.6 8 8 8"/><g id="XMLID_108_"><g id="XMLID_109_"><path id="XMLID_120_" class="st1" d="M343.6 14.5c0-2.8.4-5.3 1.1-7.6.8-2.2 1.8-4.1 3.2-5.7 1.4-1.6 3-2.8 5-3.6 1.9-.8 4-1.3 6.3-1.3 2.1 0 4 .4 5.6 1.3 1.6.9 2.9 1.9 4 3l-2.5 2.8c-.9-1-2-1.7-3.1-2.3s-2.5-.9-4-.9c-1.7 0-3.2.3-4.6 1s-2.5 1.6-3.5 2.8-1.7 2.7-2.2 4.5c-.5 1.7-.8 3.7-.8 5.9s.3 4.2.8 6 1.3 3.3 2.2 4.5c1 1.2 2.1 2.2 3.5 2.9 1.4.7 2.9 1 4.6 1 1.6 0 3-.3 4.3-1 1.2-.7 2.4-1.6 3.6-2.9l2.6 2.7c-1.4 1.6-3 2.9-4.7 3.7-1.7.9-3.7 1.3-6 1.3-2.2 0-4.2-.4-6.1-1.2-1.9-.8-3.5-2-4.9-3.6-1.4-1.5-2.4-3.5-3.2-5.7-.8-2.2-1.2-4.7-1.2-7.6z"/><path id="XMLID_117_" class="st1" d="M388.1 32.7c-2 0-3.8-.4-5.4-1.3s-3.1-2.1-4.2-3.7c-1.2-1.6-2.1-3.5-2.8-5.8-.7-2.3-1-4.8-1-7.6s.3-5.3 1-7.6c.7-2.2 1.6-4.1 2.8-5.7s2.6-2.7 4.2-3.6c1.6-.8 3.5-1.2 5.4-1.2 2 0 3.8.4 5.4 1.3 1.7.8 3.1 2 4.3 3.6 1.2 1.6 2.1 3.4 2.8 5.7.7 2.2 1 4.7 1 7.5s-.3 5.3-1 7.6-1.6 4.2-2.8 5.8c-1.2 1.6-2.6 2.8-4.3 3.7-1.6.9-3.4 1.3-5.4 1.3zm0-3.9c1.3 0 2.5-.3 3.6-1s2-1.6 2.8-2.9 1.4-2.8 1.8-4.5c.4-1.8.6-3.7.6-6 0-2.2-.2-4.1-.6-5.9-.4-1.7-1-3.2-1.8-4.4s-1.7-2.1-2.8-2.8c-1.1-.7-2.3-1-3.6-1-1.4 0-2.6.3-3.7 1s-2 1.6-2.8 2.8-1.4 2.7-1.8 4.4-.6 3.7-.6 5.9.2 4.2.6 6c.4 1.8 1 3.3 1.8 4.5.8 1.3 1.7 2.2 2.8 2.9 1.2.7 2.4 1 3.7 1z"/><path id="XMLID_114_" class="st1" d="M408.7-3h8.5c5.3 0 9.3 1.5 12.1 4.5 2.8 3 4.1 7.3 4.1 12.9 0 2.8-.3 5.3-1 7.4-.7 2.2-1.7 4-3.1 5.6s-3 2.7-5 3.5-4.3 1.2-6.9 1.2h-8.8l.1-35.1zm8.3 31.4c4 0 7-1.2 8.9-3.7 2-2.5 3-5.9 3-10.4s-1-7.9-3-10.2c-2-2.4-5-3.5-8.9-3.5h-3.8v27.8h3.8z"/><path id="XMLID_113_" class="st1" d="M442.4-3H464V.7h-17.1v11h14.5v3.8h-14.5v12.8h17.7v3.8h-22.2V-3z"/><path id="XMLID_110_" class="st1" d="M478.8 40.7c2.2-1 3.9-2.2 5-3.6s1.7-3.2 1.8-5.3c-.2 0-.3.1-.5.1h-.5c-1.1 0-2.1-.3-2.9-1s-1.2-1.7-1.2-3 .4-2.3 1.3-3 1.9-1 3-1c1.6 0 2.8.6 3.6 1.8.8 1.2 1.2 2.9 1.2 5 0 3.1-.8 5.8-2.5 7.9-1.7 2.2-4 3.8-6.9 4.9l-1.4-2.8zM480 9.1c0-1.4.4-2.4 1.3-3.3.8-.8 1.9-1.3 3.1-1.3s2.2.4 3.1 1.3c.8.8 1.3 1.9 1.3 3.3s-.4 2.4-1.3 3.3c-.8.8-1.9 1.2-3.1 1.2s-2.2-.4-3.1-1.2c-.9-.9-1.3-2-1.3-3.3z"/></g></g></svg>