<svg xmlns="http://www.w3.org/2000/svg" id="Layer_1" viewBox="-38 104.3 421.9 92.7"><style>.st0{fill:#FFFFFF;}</style><g id="XMLID_108_"><g id="XMLID_109_"><path id="XMLID_120_" d="M228.4 155.6c0-2.8.4-5.3 1.1-7.6.8-2.2 1.8-4.1 3.2-5.7 1.4-1.6 3-2.8 5-3.6 1.9-.8 4-1.3 6.3-1.3 2.1 0 4 .4 5.6 1.3 1.6.9 2.9 1.9 4 3l-2.5 2.8c-.9-1-2-1.7-3.1-2.3-1.1-.6-2.5-.9-4-.9-1.7 0-3.2.3-4.6 1-1.4.7-2.5 1.6-3.5 2.8s-1.7 2.7-2.2 4.5c-.5 1.7-.8 3.7-.8 5.9s.3 4.2.8 6c.5 1.8 1.3 3.3 2.2 4.5 1 1.2 2.1 2.2 3.5 2.9s2.9 1 4.6 1c1.6 0 3-.3 4.3-1 1.2-.7 2.4-1.6 3.6-2.9l2.6 2.7c-1.4 1.6-3 2.9-4.7 3.7-1.7.9-3.7 1.3-6 1.3-2.2 0-4.2-.4-6.1-1.2-1.9-.8-3.5-2-4.9-3.6-1.4-1.5-2.4-3.5-3.2-5.7-.8-2.2-1.2-4.7-1.2-7.6z" class="st0"/><path id="XMLID_117_" d="M272.9 173.8c-2 0-3.8-.4-5.4-1.3s-3.1-2.1-4.2-3.7c-1.2-1.6-2.1-3.5-2.8-5.8-.7-2.3-1-4.8-1-7.6s.3-5.3 1-7.6c.7-2.2 1.6-4.1 2.8-5.7 1.2-1.6 2.6-2.7 4.2-3.6 1.6-.8 3.5-1.2 5.4-1.2 2 0 3.8.4 5.4 1.3 1.7.8 3.1 2 4.3 3.6 1.2 1.6 2.1 3.4 2.8 5.7.7 2.2 1 4.7 1 7.5s-.3 5.3-1 7.6-1.6 4.2-2.8 5.8c-1.2 1.6-2.6 2.8-4.3 3.7-1.6.9-3.4 1.3-5.4 1.3zm0-3.9c1.3 0 2.5-.3 3.6-1s2-1.6 2.8-2.9c.8-1.3 1.4-2.8 1.8-4.5.4-1.8.6-3.7.6-6 0-2.2-.2-4.1-.6-5.9-.4-1.7-1-3.2-1.8-4.4s-1.7-2.1-2.8-2.8c-1.1-.7-2.3-1-3.6-1-1.4 0-2.6.3-3.7 1s-2 1.6-2.8 2.8-1.4 2.7-1.8 4.4c-.4 1.7-.6 3.7-.6 5.9s.2 4.2.6 6c.4 1.8 1 3.3 1.8 4.5.8 1.3 1.7 2.2 2.8 2.9 1.2.7 2.4 1 3.7 1z" class="st0"/><path id="XMLID_114_" d="M293.5 138.1h8.5c5.3 0 9.3 1.5 12.1 4.5 2.8 3 4.1 7.3 4.1 12.9 0 2.8-.3 5.3-1 7.4-.7 2.2-1.7 4-3.1 5.6-1.4 1.6-3 2.7-5 3.5-2 .8-4.3 1.2-6.9 1.2h-8.8l.1-35.1zm8.3 31.4c4 0 7-1.2 8.9-3.7 2-2.5 3-5.9 3-10.4s-1-7.9-3-10.2c-2-2.4-5-3.5-8.9-3.5H298v27.8h3.8z" class="st0"/><path id="XMLID_113_" d="M327.2 138.1h21.6v3.7h-17.1v11h14.5v3.8h-14.5v12.8h17.7v3.8h-22.2v-35.1z" class="st0"/><path id="XMLID_110_" d="M363.6 181.8c2.2-1 3.9-2.2 5-3.6s1.7-3.2 1.8-5.3c-.2 0-.3.1-.5.1h-.5c-1.1 0-2.1-.3-2.9-1s-1.2-1.7-1.2-3 .4-2.3 1.3-3 1.9-1 3-1c1.6 0 2.8.6 3.6 1.8.8 1.2 1.2 2.9 1.2 5 0 3.1-.8 5.8-2.5 7.9-1.7 2.2-4 3.8-6.9 4.9l-1.4-2.8zm1.2-31.6c0-1.4.4-2.4 1.3-3.3.8-.8 1.9-1.3 3.1-1.3s2.2.4 3.1 1.3c.8.8 1.3 1.9 1.3 3.3s-.4 2.4-1.3 3.3c-.8.8-1.9 1.2-3.1 1.2s-2.2-.4-3.1-1.2c-.9-.9-1.3-2-1.3-3.3z" class="st0"/></g></g><path id="XMLID_38_" d="M74.4 123.5c-1 0-2.1.4-2.8 1.2-.7.7-1.2 1.8-1.2 2.8s.4 2.1 1.2 2.8c.7.7 1.8 1.2 2.8 1.2 1 0 2.1-.4 2.8-1.2.7-.7 1.2-1.8 1.2-2.8 0-1-.4-2.1-1.2-2.8-.7-.8-1.8-1.2-2.8-1.2z" class="st0"/><path id="XMLID_37_" d="M74.4 135.3c-2.2 0-4 1.8-4 4v31.6c0 2.2 1.8 4 4 4s4-1.8 4-4v-31.6c0-2.2-1.8-4-4-4z" class="st0"/><path id="XMLID_36_" d="M62.5 135.3c-2.2 0-4 1.8-4 4V159c0 4.4-3.5 7.9-7.9 7.9s-7.9-3.5-7.9-7.9v-19.8c0-2.2-1.8-4-4-4s-4 1.8-4 4V159c0 8.7 7.1 15.8 15.8 15.8 3 0 5.8-.9 8.2-2.3.6 1.4 2 2.3 3.6 2.3 2.2 0 4-1.8 4-4v-31.6c.2-2.2-1.6-3.9-3.8-3.9z" class="st0"/><path id="XMLID_35_" d="M106.1 139.2c0-2.2-1.8-4-4-4-4.5 0-8.6 1.5-11.9 4 0-2.2-1.8-4-4-4s-4 1.8-4 4V170.9c0 2.2 1.8 4 4 4s4-1.8 4-4V155c0-6.5 5.3-11.9 11.9-11.9 2.2.1 4-1.7 4-3.9z" class="st0"/><path id="XMLID_34_" d="M204.5 166.9c-2 0-3.5-1.6-3.5-3.5v-20.2h4c2.2 0 4-1.8 4-4s-1.8-4-4-4h-4v-7.9c0-2.2-1.8-4-4-4s-4 1.8-4 4v7.9h-4c-2.2 0-4 1.8-4 4s1.8 4 4 4h4v2.9c1.3 2.8 2 5.9 2 9 0 3.1-.7 6.1-2 8.9.3 6 5.3 10.9 11.4 10.9 2.2 0 4-1.8 4-4s-1.7-4-3.9-4z" class="st0"/><path id="XMLID_33_" d="M193 155c0-3.5-1-6.9-2.7-9.8h-1.2c-3.3 0-5.9-2.7-5.9-5.9 0-.4 0-.8.1-1.2-3-1.8-6.5-2.8-10-2.8-5.2 0-10.3 2.1-14 5.8-.2.2-.4.4-.5.6 1.8 2.3 3.2 5 4 8 .6-1.1 1.3-2.1 2.2-3 2.2-2.2 5.3-3.5 8.4-3.5 3.1 0 6.2 1.3 8.4 3.5s3.5 5.3 3.5 8.4c0 3.1-1.3 6.2-3.5 8.4s-5.3 3.5-8.4 3.5c-3.1 0-6.2-1.3-8.4-3.5-.9-.9-1.6-1.9-2.2-3-.8 3-2.1 5.7-4 8 .2.2.3.4.5.6 3.7 3.7 8.8 5.8 14 5.8 5.2 0 10.3-2.1 14-5.8 3.7-3.7 5.8-8.7 5.8-13.9-.1-.1-.1-.1-.1-.2z" class="st0"/><path id="XMLID_97_" d="M141.7 135.3h-7.9v-15.8c0-2.2-1.8-4-4-4s-4 1.8-4 4v13.8c1.6 0 3.1.6 4.2 1.7s1.7 2.6 1.7 4.2-.6 3.1-1.7 4.2l-4.2 4.2v14.8l4.2 4.2c1.1 1.1 1.7 2.6 1.7 4.2 0 1.5-.5 2.9-1.5 4h11.4c10.9 0 19.8-8.9 19.8-19.8 0-10.8-8.8-19.7-19.7-19.7zm0 31.6s-.1 0 0 0h-7.9v-23.7h7.9c6.5 0 11.9 5.3 11.9 11.9-.1 6.5-5.4 11.8-11.9 11.8z" class="st0"/><path id="XMLID_30_" d="M115.6 155.1l13-13c1.5-1.5 1.5-4 0-5.6-1.5-1.5-4-1.5-5.6 0l-13 13v-30c0-2.2-1.8-4-4-4s-4 1.8-4 4v13.8c3.3 0 5.9 2.7 5.9 5.9 0 3.3-2.7 5.9-5.9 5.9v25.8c0 2.2 1.8 4 4 4s4-1.8 4-4v-10.2l13 13c.8.8 1.8 1.2 2.8 1.2 1 0 2-.4 2.8-1.2 1.5-1.5 1.5-4 0-5.6l-13-13z" class="st0"/><path id="XMLID_92_" d="M33.2 162.5c-.2-1.1-.3-2.2-.3-3.3v-20c0-2.5 1.5-4.6 3.6-5.5-4.5-10.7-15-18.2-27.3-18.2-16.3 0-29.6 13.3-29.6 29.6s13.3 29.6 29.6 29.6c1.7 0 3.4-.2 5-.4 1.9 4.1 6 7 10.8 7 2.2 0 4-1.8 4-4s-1.8-4-4-4c-1.3 0-2.4-.6-3.1-1.5 4.5-2 8.4-5.3 11.3-9.3zM12 165.7c-.7.7-1.8 1.2-2.8 1.2-1 0-2.1-.4-2.8-1.2-.7-.7-1.1-1.7-1.1-2.7 0-1 .4-2.1 1.2-2.8.7-.7 1.8-1.2 2.8-1.2 1 0 2.1.4 2.8 1.2.7.7 1.2 1.8 1.2 2.8-.1 1-.6 2-1.3 2.7zm9.1-2.3v-.4c0-3.1-1.3-6.2-3.5-8.4s-5.3-3.5-8.4-3.5c-3.1 0-6.2 1.3-8.4 3.5s-3.5 5.3-3.5 8.4v.4c-5.9-3.9-9.9-10.6-9.9-18.2 0-12 9.7-21.7 21.7-21.7s21.7 9.7 21.7 21.7c.1 7.6-3.8 14.3-9.7 18.2z" class="st0"/></svg>
