<svg id="Layer_1" xmlns="http://www.w3.org/2000/svg" viewBox="0 0 169.1 35.9">
	<g fill="#FFF">
		<path d="M161.1 29.5c0 3.6-3 6.4-8.1 6.4-2.7 0-4.8-.8-6.1-1.6-1.7-1-3.4-.1-3.4-.1-1.4.8-3.7 1.7-6.6 1.7-6.4 0-10.1-4.3-10.7-9H113.5c.5 2.4 2.5 3.5 4.6 3.5 1.3 0 2.6-.4 3.6-.9 1.3-.6 2.2-.4 2.8.8l.5 1c.6 1.2.4 2.2-.7 2.8-1.4.8-3.7 1.7-6.7 1.7-7 0-10.8-5.1-10.8-10.3 0-5.7 3.9-10.2 10.2-10.2 5.2 0 8.3 3.3 8.9 7.8h.4c1-4.5 4.6-7.8 9.9-7.8 5.8 0 9 4.1 9 9.3 0 1-.9 2.2-2.2 2.2h-10.3c.5 2.4 2.5 3.5 4.6 3.5 1.3 0 2.5-.4 3.4-.8 1.2-.6 2.7-1.2 4.3-1.2 1.7 0 3.1.7 4.2 1.4h.1c.9.4 2.2 1 3.7 1 1.3 0 1.8-.5 1.8-1.1 0-2.3-9.2-1.2-9.2-8.1 0-4 3.6-6.2 8.1-6.2 2.5 0 4.3.7 5.5 1.3 1.2.6 1.3 1.6.8 2.8l-.5.9c-.6 1.2-1.5 1.4-2.8.9-.9-.3-2.1-.8-3.3-.8-1.4 0-1.7.5-1.7 1 .3 2.4 9.4 1.3 9.4 8.1zM133 23.2h5.9c0-1.6-1-2.9-2.7-2.9-1.9-.1-2.8 1.3-3.2 2.9zm-13.4 0c0-1.6-1-2.9-2.7-2.9-1.9 0-2.8 1.4-3.2 2.9h5.9z"/>
		<path d="M165.4 27.3c-2 0-3.6 1.5-3.6 3.9s1.7 3.8 3.6 3.8c2 0 3.6-1.5 3.6-3.8.1-2.4-1.6-3.9-3.6-3.9z"/>
		<path d="M110 25.7c0 6.1-4.9 10.2-11.1 10.2-4.7 0-8.7-2.4-10.3-6.2l3.2-11.4c.1-.2.1-.5.1-.7-2.5 1.8-4.1 4.6-4.1 8.1 0 1.4.3 2.8.8 3.9l-1.1 4c-.3 1.2-1.1 1.8-2.3 1.8h-3.6c-1.3 0-2-.6-2.3-1.8l-1.7-7.2c-.3-1.1-.4-2.1-.4-2.1H77s-.1 1-.4 2.1l-1.7 7.2c-.3 1.2-1.1 1.8-2.3 1.8h-3.7c-1.2 0-2-.6-2.3-1.8l-4.3-15.4c-.4-1.4.3-2.4 1.8-2.4h2.6c1.3 0 2 .6 2.3 1.9l2.1 9.7c.2 1.1.2 2.1.2 2.1h.1s.1-1 .3-2.1l2.3-9.7c.3-1.2 1-1.8 2.3-1.8H78c1.3 0 2 .6 2.3 1.8l2.3 9.7c.3 1.1.3 2.1.3 2.1h.1s0-1 .3-2.1l2.1-9.7c.3-1.3 1-1.9 2.3-1.9H90c.6 0 1.1.2 1.4.5L86.7 3.8c-.5-1.3-.1-2.2 1.2-2.7l2.3-.9c1.3-.5 2.2-.1 2.7 1.2l5.3 14h.7c6.2 0 11.1 4.1 11.1 10.3zm-6.6 0c0-3-2.1-4.8-4.4-4.8-2.4 0-4.4 1.9-4.4 4.8s2.1 4.7 4.4 4.7c2.3 0 4.4-1.8 4.4-4.7z"/>
		<path d="M6.5 15.8c0-1.1.9-1.9 3-1.9 1.8 0 3 .6 4.3 1.3 1.1.5 2.1.8 2.8-.7l.9-1.8c.6-1.1.5-2.1-.6-2.8-1.3-.9-4.2-2-7.3-2-5.5 0-9.7 3.3-9.7 8.3 0 8.5 12 7.9 12 11.7 0 1.1-.9 1.9-2.9 1.9-2.4 0-4.1-1.2-4.9-1.7-1.3-.7-2.1-.6-2.9.5L0 30.3c-1 1.4-.4 2.2.4 2.9 1.4 1.1 4.8 2.7 8.6 2.7 6.1 0 9.5-3.9 9.5-8.5 0-8.6-12-7.6-12-11.6z"/>
		<path d="M62 23.4v10c0 1.4-.7 2.1-2.1 2.1h-1.8c-1.4 0-2.1-.7-2.1-2.1v-.2-.4s-1.9 3.1-5.8 3.1c-3.8 0-6.4-2.6-6.4-6 0-5.2 6.2-6.7 11.1-6.7h.6v-.3c0-1.6-1.3-2.2-2.8-2.2-1.3 0-2.5.4-3.5.9-1.3.5-2.2.3-2.8-.9l-.5-.9c-.6-1.2-.3-2.2.8-2.8 1.5-.7 3.8-1.5 6.6-1.5 5.4-.1 8.7 2.9 8.7 7.9zM55.5 27h-.6c-2 0-4.6.5-4.6 2.3 0 .9.6 1.7 1.9 1.7 1.9 0 3.3-1.9 3.3-3.5V27z"/>
		<path d="M44.9 19.9v-2.1c0-1.4-.5-2.1-1.8-2.1-2.5 0-4.6 2.7-5.2 4.7h-.1s.1-.6.1-1.2V18c0-1.4-.7-2.1-2.1-2.1h-2.1c-1.4 0-2.1.7-2.1 2.1v11.6h-3c-.2 0-.3-.1-.5-.1-1.2-.2-2.3-.8-2.3-2.5v-5.9h2.1c1.3 0 2.1-.7 2.1-2.1v-1c0-1.4-.7-2.1-2.1-2.1h-2v-3.5c0-1.4-.7-2.1-2.1-2.1h-2.2c-1.4 0-2.1.7-2.1 2.1V16h-.7c-1.4 0-2.1.7-2.1 2.1v1c0 1.4.7 2.1 2.1 2.1h.6v7.1c0 5.8 5.3 7.1 8.2 7.1H36.3c1.4 0 2.1-.7 2.1-2.1v-5.5c0-3.2 1.5-5.9 4.6-5.9 1.2.1 1.9-.6 1.9-2z"/>
	</g>
</svg>
