<?xml version="1.0" encoding="utf-8"?>
<!-- Generator: Adobe Illustrator 19.0.0, SVG Export Plug-In . SVG Version: 6.00 Build 0)  -->
<svg version="1.1" id="Layer_1" xmlns="http://www.w3.org/2000/svg" xmlns:xlink="http://www.w3.org/1999/xlink" x="0px" y="0px"
	 viewBox="-172 370.9 250 100" style="enable-background:new -172 370.9 250 100;" xml:space="preserve">
<style type="text/css">
	.st0{fill:none;stroke:#FFFFFF;stroke-width:16;stroke-linecap:round;stroke-linejoin:round;stroke-miterlimit:10;}
	.st1{fill:#FFFFFF;}
	.st2{opacity:0.5;fill:#EB008A;enable-background:new    ;}
	.st3{fill:#FFF000;}
	.st4{opacity:0.5;fill:#00ACEE;enable-background:new    ;}
	.st5{fill:#F57845;}
	.st6{fill:none;stroke:#7FCE77;stroke-width:8;stroke-linecap:round;stroke-miterlimit:10;}
	.st7{opacity:0.5;fill:none;stroke:#00ACEE;stroke-width:8;stroke-linecap:round;stroke-miterlimit:10;enable-background:new    ;}
	
		.st8{opacity:0.5;fill:none;stroke:#EB008A;stroke-width:8;stroke-linecap:round;stroke-linejoin:round;stroke-miterlimit:10;enable-background:new    ;}
	.st9{opacity:0.5;fill:none;stroke:#EB008A;stroke-width:8;stroke-linecap:round;stroke-miterlimit:10;enable-background:new    ;}
	.st10{fill:#7FD5F6;}
</style>
<line class="st0" x1="-34" y1="443.5" x2="-34" y2="391.5"/>
<line class="st0" x1="-10" y1="443.5" x2="-10" y2="391.5"/>
<line class="st0" x1="-66" y1="443.5" x2="-66" y2="399.5"/>
<line class="st0" x1="-102" y1="431.5" x2="-102" y2="411.5"/>
<polyline class="st0" points="-54,443.5 -54,427.5 -54,411.5 "/>
<line class="st0" x1="49.9" y1="411.5" x2="65.9" y2="411.5"/>
<path class="st0" d="M57.9,399.5v12v20.7v3.7c0,4.2,3.4,7.6,7.6,7.6"/>
<path class="st0" d="M-124,435.5v6.7c0,4.4,3.6,8,8,8"/>
<polyline class="st0" points="-78,443.5 -78,431.5 -78,411.5 "/>
<path class="st0" d="M-54,427.5c0-8.8,7.2-16,16-16"/>
<polyline class="st0" points="2,443.5 -10,443.5 -14,443.5 -30,427.5 -14,411.5 -10,411.5 2,411.5 "/>
<circle class="st1" cx="33.9" cy="427.5" r="24"/>
<circle class="st1" cx="-66" cy="399.5" r="16"/>
<circle class="st1" cx="-132" cy="417.6" r="34"/>
<circle class="st1" cx="-90" cy="431.5" r="20.1"/>
<circle class="st1" cx="1.9" cy="427.5" r="24"/>
<circle class="st2" cx="33.9" cy="427.5" r="20"/>
<circle class="st3" cx="-132" cy="417.5" r="30"/>
<circle class="st1" cx="-132" cy="417.5" r="22"/>
<circle class="st4" cx="-132" cy="417.5" r="26"/>
<circle class="st2" cx="-132" cy="435.5" r="12"/>
<circle class="st3" cx="-66" cy="399.5" r="11.9"/>
<circle class="st3" cx="-90" cy="431.5" r="12"/>
<circle class="st3" cx="2" cy="427.5" r="16"/>
<circle class="st5" cx="33.9" cy="427.5" r="16"/>
<circle class="st3" cx="33.9" cy="427.5" r="12"/>
<circle class="st4" cx="-66" cy="399.5" r="8"/>
<line class="st6" x1="-34" y1="443.5" x2="-34" y2="391.5"/>
<line class="st7" x1="-10" y1="443.5" x2="-10" y2="391.5"/>
<line class="st6" x1="-54" y1="427.5" x2="-54" y2="411.5"/>
<path class="st7" d="M65.5,443.5c-4.2,0-7.6-3.4-7.6-7.6v-3.7v-20.7"/>
<line class="st7" x1="-102" y1="431.5" x2="-102" y2="411.5"/>
<line class="st7" x1="-54" y1="443.5" x2="-54" y2="427.5"/>
<line class="st7" x1="49.9" y1="411.5" x2="65.9" y2="411.5"/>
<path class="st7" d="M2,411.5c8.8,0,16,7.2,16,16s-7.2,16-16,16"/>
<line class="st7" x1="2" y1="443.5" x2="-10" y2="443.5"/>
<path class="st8" d="M-102,431.5c0,6.6,5.4,12,12,12s12-5.4,12-12"/>
<line class="st7" x1="57.9" y1="399.5" x2="57.9" y2="411.5"/>
<line class="st7" x1="-78" y1="431.5" x2="-78" y2="411.5"/>
<line class="st9" x1="-78" y1="431.5" x2="-78" y2="443.5"/>
<path class="st7" d="M-54,427.5c0-8.8,7.2-16,16-16"/>
<line class="st7" x1="2" y1="411.5" x2="-10" y2="411.5"/>
<line class="st9" x1="-34" y1="431.5" x2="-14" y2="411.5"/>
<line class="st9" x1="-30" y1="427.5" x2="-14" y2="443.5"/>
<line class="st9" x1="-66" y1="443.5" x2="-66" y2="399.5"/>
<circle class="st4" cx="-66" cy="399.5" r="4"/>
<circle class="st10" cx="-132" cy="435.5" r="4"/>
<path class="st9" d="M-124,435.5v6.7c0,4.4,3.6,8,8,8"/>
</svg>
