<svg xmlns="http://www.w3.org/2000/svg" id="Layer_1" viewBox="-172 370.9 250 100"><style>.st0{fill:none;stroke:#FFFFFF;stroke-width:16;stroke-linecap:round;stroke-linejoin:round;stroke-miterlimit:10;} .st1{fill:#FFFFFF;} .st2{opacity:0.5;fill:#EB008A;enable-background:new ;} .st3{fill:#FFF000;} .st4{opacity:0.5;fill:#00ACEE;enable-background:new ;} .st5{fill:#F57845;} .st6{fill:none;stroke:#7FCE77;stroke-width:8;stroke-linecap:round;stroke-miterlimit:10;} .st7{opacity:0.5;fill:none;stroke:#00ACEE;stroke-width:8;stroke-linecap:round;stroke-miterlimit:10;enable-background:new ;} .st8{opacity:0.5;fill:none;stroke:#EB008A;stroke-width:8;stroke-linecap:round;stroke-linejoin:round;stroke-miterlimit:10;enable-background:new ;} .st9{opacity:0.5;fill:none;stroke:#EB008A;stroke-width:8;stroke-linecap:round;stroke-miterlimit:10;enable-background:new ;} .st10{fill:#7FD5F6;}</style><line x1="-34" x2="-34" y1="443.5" y2="391.5" class="st0"/><line x1="-10" x2="-10" y1="443.5" y2="391.5" class="st0"/><line x1="-66" x2="-66" y1="443.5" y2="399.5" class="st0"/><line x1="-102" x2="-102" y1="431.5" y2="411.5" class="st0"/><polyline points="-54 443.5 -54 427.5 -54 411.5" class="st0"/><line x1="49.9" x2="65.9" y1="411.5" y2="411.5" class="st0"/><path d="M58 399.5V436c0 4 3.3 7.5 7.5 7.5m-189.5-8v6.7c0 4.4 3.6 8 8 8" class="st0"/><polyline points="-78 443.5 -78 431.5 -78 411.5" class="st0"/><path d="M-54 427.5c0-8.8 7.2-16 16-16" class="st0"/><polyline points="2 443.5 -10 443.5 -14 443.5 -30 427.5 -14 411.5 -10 411.5 2 411.5" class="st0"/><circle cx="33.9" cy="427.5" r="24" class="st1"/><circle cx="-66" cy="399.5" r="16" class="st1"/><circle cx="-132" cy="417.6" r="34" class="st1"/><circle cx="-90" cy="431.5" r="20.1" class="st1"/><circle cx="1.9" cy="427.5" r="24" class="st1"/><circle cx="33.9" cy="427.5" r="20" class="st2"/><circle cx="-132" cy="417.5" r="30" class="st3"/><circle cx="-132" cy="417.5" r="22" class="st1"/><circle cx="-132" cy="417.5" r="26" class="st4"/><circle cx="-132" cy="435.5" r="12" class="st2"/><circle cx="-66" cy="399.5" r="11.9" class="st3"/><circle cx="-90" cy="431.5" r="12" class="st3"/><circle cx="2" cy="427.5" r="16" class="st3"/><circle cx="33.9" cy="427.5" r="16" class="st5"/><circle cx="33.9" cy="427.5" r="12" class="st3"/><circle cx="-66" cy="399.5" r="8" class="st4"/><line x1="-34" x2="-34" y1="443.5" y2="391.5" class="st6"/><line x1="-10" x2="-10" y1="443.5" y2="391.5" class="st7"/><line x1="-54" x2="-54" y1="427.5" y2="411.5" class="st6"/><path d="M65.5 443.5c-4.2 0-7.6-3.4-7.6-7.6v-24.7" class="st7"/><line x1="-102" x2="-102" y1="431.5" y2="411.5" class="st7"/><line x1="-54" x2="-54" y1="443.5" y2="427.5" class="st7"/><line x1="49.9" x2="65.9" y1="411.5" y2="411.5" class="st7"/><path d="M2 411.5c8.8 0 16 7.2 16 16s-7.2 16-16 16" class="st7"/><line x1="2" x2="-10" y1="443.5" y2="443.5" class="st7"/><path d="M-102 431.5c0 6.6 5.4 12 12 12s12-5.4 12-12" class="st8"/><line x1="57.9" x2="57.9" y1="399.5" y2="411.5" class="st7"/><line x1="-78" x2="-78" y1="431.5" y2="411.5" class="st7"/><line x1="-78" x2="-78" y1="431.5" y2="443.5" class="st9"/><path d="M-54 427.5c0-8.8 7.2-16 16-16" class="st7"/><line x1="2" x2="-10" y1="411.5" y2="411.5" class="st7"/><line x1="-34" x2="-14" y1="431.5" y2="411.5" class="st9"/><line x1="-30" x2="-14" y1="427.5" y2="443.5" class="st9"/><line x1="-66" x2="-66" y1="443.5" y2="399.5" class="st9"/><circle cx="-66" cy="399.5" r="4" class="st4"/><circle cx="-132" cy="435.5" r="4" class="st10"/><path d="M-124 435.5v6.7c0 4.4 3.6 8 8 8" class="st9"/></svg>