<?xml version="1.0" encoding="utf-8"?>
<!-- Generator: Adobe Illustrator 16.0.0, SVG Export Plug-In . SVG Version: 6.00 Build 0)  -->
<!DOCTYPE svg PUBLIC "-//W3C//DTD SVG 1.1//EN" "http://www.w3.org/Graphics/SVG/1.1/DTD/svg11.dtd">
<svg version="1.1" id="Layer_1" xmlns="http://www.w3.org/2000/svg" xmlns:xlink="http://www.w3.org/1999/xlink" x="0px" y="0px"
	 width="93.958px" height="36.253px" viewBox="0 0 93.958 36.253" enable-background="new 0 0 93.958 36.253" xml:space="preserve">
<g>
	<g>
		<path fill="#FFFFFF" d="M5.732,16.3c0-1.58,0.214-3,0.645-4.26c0.43-1.26,1.035-2.33,1.815-3.21c0.779-0.88,1.71-1.555,2.79-2.025
			c1.079-0.47,2.26-0.705,3.539-0.705c1.2,0,2.25,0.24,3.15,0.72s1.64,1.04,2.22,1.68l-1.409,1.59
			c-0.521-0.54-1.101-0.975-1.74-1.305c-0.641-0.33-1.38-0.495-2.221-0.495c-0.939,0-1.795,0.185-2.564,0.555
			c-0.771,0.37-1.425,0.9-1.965,1.59S9.037,11.96,8.747,12.94c-0.29,0.98-0.436,2.081-0.436,3.3c0,1.24,0.146,2.355,0.436,3.345
			c0.29,0.991,0.705,1.835,1.245,2.536c0.54,0.699,1.194,1.24,1.965,1.619c0.77,0.381,1.625,0.57,2.564,0.57
			c0.9,0,1.7-0.189,2.4-0.57c0.7-0.379,1.37-0.92,2.01-1.619l1.44,1.529c-0.78,0.9-1.66,1.601-2.64,2.1
			c-0.98,0.5-2.101,0.75-3.36,0.75c-1.24,0-2.385-0.229-3.436-0.689c-1.05-0.46-1.96-1.125-2.729-1.995
			c-0.771-0.87-1.375-1.939-1.815-3.21C5.952,19.335,5.732,17.9,5.732,16.3z"/>
		<path fill="#FFFFFF" d="M30.752,26.5c-1.12,0-2.141-0.239-3.06-0.719c-0.921-0.48-1.716-1.166-2.386-2.056s-1.189-1.97-1.56-3.239
			c-0.37-1.271-0.555-2.695-0.555-4.276c0-1.58,0.185-2.995,0.555-4.245s0.89-2.31,1.56-3.18s1.465-1.535,2.386-1.995
			c0.919-0.46,1.939-0.69,3.06-0.69c1.1,0,2.115,0.235,3.045,0.705c0.93,0.47,1.729,1.14,2.4,2.01c0.67,0.87,1.189,1.931,1.56,3.18
			c0.37,1.25,0.555,2.655,0.555,4.215c0,1.581-0.185,3.005-0.555,4.276c-0.37,1.27-0.89,2.35-1.56,3.239
			c-0.671,0.89-1.471,1.575-2.4,2.056C32.867,26.26,31.852,26.5,30.752,26.5z M30.752,24.31c0.739,0,1.42-0.189,2.04-0.57
			c0.62-0.379,1.145-0.924,1.575-1.635c0.43-0.709,0.765-1.561,1.005-2.55c0.24-0.99,0.36-2.104,0.36-3.345
			c0-1.22-0.12-2.32-0.36-3.3c-0.24-0.979-0.575-1.81-1.005-2.49c-0.431-0.68-0.955-1.205-1.575-1.575s-1.301-0.555-2.04-0.555
			c-0.761,0-1.445,0.185-2.055,0.555c-0.61,0.37-1.131,0.895-1.561,1.575c-0.43,0.68-0.765,1.511-1.005,2.49
			c-0.24,0.98-0.36,2.08-0.36,3.3c0,1.241,0.12,2.355,0.36,3.345c0.24,0.989,0.575,1.841,1.005,2.55
			c0.43,0.711,0.95,1.256,1.561,1.635C29.307,24.121,29.991,24.31,30.752,24.31z"/>
		<path fill="#FFFFFF" d="M42.302,6.46h4.799c2.98,0,5.246,0.84,6.795,2.52c1.551,1.68,2.326,4.09,2.326,7.23
			c0,1.56-0.195,2.955-0.586,4.185c-0.389,1.229-0.965,2.271-1.725,3.12s-1.699,1.5-2.82,1.95c-1.119,0.45-2.41,0.675-3.869,0.675
			h-4.92V6.46z M46.953,24.1c2.238,0,3.914-0.69,5.023-2.069c1.111-1.381,1.666-3.32,1.666-5.821c0-2.5-0.555-4.41-1.666-5.73
			c-1.109-1.32-2.785-1.98-5.023-1.98h-2.161v15.6H46.953z"/>
		<path fill="#FFFFFF" d="M61.203,6.46h12.148v2.1h-9.629v6.18h8.129v2.13h-8.129v7.14h9.93v2.13H61.203V6.46z"/>
		<path fill="#FFFFFF" d="M81.662,30.97c1.24-0.561,2.17-1.235,2.791-2.025c0.619-0.79,0.949-1.785,0.99-2.984
			c-0.102,0.02-0.195,0.035-0.285,0.045s-0.186,0.015-0.285,0.015c-0.641,0-1.191-0.185-1.65-0.555
			c-0.461-0.37-0.689-0.935-0.689-1.695c0-0.739,0.238-1.305,0.719-1.694c0.48-0.391,1.041-0.586,1.68-0.586
			c0.9,0,1.576,0.346,2.025,1.035c0.451,0.69,0.676,1.625,0.676,2.805c0,1.76-0.465,3.245-1.395,4.455
			c-0.932,1.211-2.227,2.125-3.887,2.746L81.662,30.97z M82.322,13.24c0-0.76,0.234-1.375,0.705-1.845
			c0.471-0.47,1.045-0.705,1.725-0.705s1.256,0.235,1.725,0.705c0.471,0.47,0.705,1.085,0.705,1.845c0,0.76-0.234,1.37-0.705,1.83
			c-0.469,0.46-1.045,0.69-1.725,0.69s-1.254-0.23-1.725-0.69S82.322,14,82.322,13.24z"/>
	</g>
</g>
</svg>
