<?xml version="1.0" encoding="utf-8"?>
<!-- Generator: Adobe Illustrator 19.1.0, SVG Export Plug-In . SVG Version: 6.00 Build 0)  -->
<!DOCTYPE svg PUBLIC "-//W3C//DTD SVG 1.1//EN" "http://www.w3.org/Graphics/SVG/1.1/DTD/svg11.dtd">
<svg version="1.1" id="Layer_1" xmlns="http://www.w3.org/2000/svg" xmlns:xlink="http://www.w3.org/1999/xlink" x="0px" y="0px"
	 viewBox="108 -108 256 256" style="enable-background:new 108 -108 256 256;" xml:space="preserve">
<style type="text/css">
	.st0{opacity:0.9;fill:#FFF000;enable-background:new    ;}
	.st1{opacity:0.5;fill:#10C1FF;enable-background:new    ;}
	.st2{fill:#FFFF00;}
	.st3{fill:#FFFFFF;}
	.st4{display:none;}
	.st5{display:inline;opacity:0.9;fill:#FFF000;enable-background:new    ;}
	.st6{display:inline;opacity:0.5;}
	.st7{fill:#10C1FF;}
	.st8{display:inline;}
	.st9{fill:#333333;}
	.st10{display:inline;fill:none;}
	.st11{display:inline;fill:#FFFF00;}
	.st12{display:inline;fill:#333333;}
</style>
<g id="failed">
	<path class="st0" d="M300,20c0,35.3-28.6,63.9-63.9,63.9S172.2,55.3,172.2,20s28.6-63.9,63.9-63.9C271.4-43.9,300-15.3,300,20z"/>
	<path class="st1" d="M300,20c0,35.3-28.6,63.9-63.9,63.9S172.2,55.3,172.2,20s28.6-63.9,63.9-63.9C271.4-43.9,300-15.3,300,20z"/>
	<path class="st2" d="M236.1-43.9c35.3,0,63.9,28.6,63.9,63.9s-28.6,63.9-63.9,63.9S172.2,55.3,172.2,20
		C172.2-15.3,200.8-43.9,236.1-43.9 M236.1-55.9c-41.8,0-75.9,34-75.9,75.9c0,41.8,34,75.9,75.9,75.9c41.8,0,75.9-34,75.9-75.9
		C312-21.8,278-55.9,236.1-55.9L236.1-55.9z"/>
	<path class="st3" d="M235.1,53c-1,0-2-0.2-3-0.7c-3.1-1.6-4.3-5.5-2.7-8.6l25.3-47.9c1.6-3.1,5.5-4.3,8.6-2.7
		c3.1,1.6,4.3,5.5,2.7,8.6l-25.3,47.9C239.6,51.8,237.4,53,235.1,53z"/>
	<path class="st3" d="M235.1,53c-1.9,0-3.8-0.8-5-2.5l-21.7-28.1c-2.1-2.8-1.6-6.8,1.1-8.9c2.8-2.1,6.8-1.6,8.9,1.1l21.7,28.1
		c2.1,2.8,1.6,6.8-1.1,8.9C237.9,52.6,236.5,53,235.1,53z"/>
</g>
<g id="saved_1_">
	<path class="st0" d="M300,20c0,35.3-28.6,63.9-63.9,63.9S172.2,55.3,172.2,20s28.6-63.9,63.9-63.9C271.4-43.9,300-15.3,300,20z"/>
	<path class="st1" d="M300,20c0,35.3-28.6,63.9-63.9,63.9S172.2,55.3,172.2,20s28.6-63.9,63.9-63.9C271.4-43.9,300-15.3,300,20z"/>
	<path class="st2" d="M236.1-43.9c35.3,0,63.9,28.6,63.9,63.9s-28.6,63.9-63.9,63.9S172.2,55.3,172.2,20
		C172.2-15.3,200.8-43.9,236.1-43.9 M236.1-55.9c-41.8,0-75.9,34-75.9,75.9c0,41.8,34,75.9,75.9,75.9c41.8,0,75.9-34,75.9-75.9
		C312-21.8,278-55.9,236.1-55.9L236.1-55.9z"/>
	<path class="st3" d="M261.8,34.7l-14.7-14.6l14.6-14.7c2.4-2.5,2.4-6.6-0.1-9s-6.6-2.4-9,0.1l-14.6,14.7L223.3-3.4
		c-2.5-2.4-6.6-2.4-9,0.1c-0.8,0.8-1.3,1.7-1.5,2.7c-0.7,2.2-0.2,4.7,1.6,6.3l14.7,14.6L214.5,35c-2.4,2.5-2.4,6.6,0.1,9
		c0.8,0.8,1.7,1.3,2.7,1.5c2.2,0.7,4.7,0.2,6.3-1.6l14.6-14.7l14.7,14.6c2.5,2.4,6.6,2.4,9-0.1C264.3,41.2,264.3,37.1,261.8,34.7z"
		/>
</g>
<g id="notsaved" class="st4">
	<path class="st5" d="M267.8,21.2c0,35.3-28.6,63.9-63.9,63.9S140,56.5,140,21.2s28.6-63.9,63.9-63.9
		C239.2-42.7,267.8-14.1,267.8,21.2z"/>
	<g class="st6">
		<path class="st7" d="M331.7,21.2c0,35.3-28.6,63.9-63.9,63.9s-63.9-28.6-63.9-63.9s28.6-63.9,63.9-63.9
			C303.1-42.7,331.7-14.1,331.7,21.2z"/>
	</g>
</g>
<g id="quirkbots" class="st4">
	<g class="st8">
		<path class="st9" d="M236.2-76.7c7.7,0,13.9,6.2,13.9,13.9v35.7c1.7,0.4,3.3,0.9,4.9,1.4c2.8-1.6,6-2.5,9.4-2.5
			c10.4,0,19,8.5,19,19c0,1.4-0.2,2.7-0.4,3.9c1,1.4,2,2.7,2.9,4.2l33.9-11c1.4-0.5,2.9-0.7,4.3-0.7c5.8,0,11.3,3.7,13.2,9.6
			c2.4,7.3-1.6,15.1-8.9,17.5l-33.9,11c0.1,1.4,0.2,2.9,0.2,4.3c0,14.4-5.2,27.5-13.9,37.7l21,28.9c4.5,6.2,3.1,14.9-3.1,19.4
			c-2.5,1.8-5.3,2.7-8.1,2.7c-4.3,0-8.5-2-11.2-5.7l-21-28.9c-6.8,2.8-14.3,4.4-22.1,4.4s-15.3-1.6-22.1-4.4l-21,28.9
			c-2.7,3.7-6.9,5.7-11.2,5.7c-2.8,0-5.7-0.9-8.1-2.7c-6.2-4.5-7.6-13.2-3.1-19.4l21-28.9c-8.6-10.2-13.9-23.3-13.9-37.7
			c0-1.5,0.1-2.9,0.2-4.3l-33.9-11c-7.3-2.4-11.3-10.2-8.9-17.5c1.9-5.9,7.3-9.6,13.2-9.6c1.4,0,2.9,0.2,4.3,0.7l34,11
			c0.9-1.4,1.9-2.8,2.9-4.2c-0.3-1.3-0.4-2.6-0.4-3.9c0-10.4,8.5-19,19-19c3.4,0,6.7,0.9,9.4,2.5c1.6-0.6,3.2-1,4.9-1.4v-35.8
			C222.3-70.5,228.5-76.7,236.2-76.7 M236.2-88.7c-14.3,0-25.9,11.6-25.9,25.9v22.7c-0.8-0.1-1.6-0.1-2.4-0.1
			c-14.6,0-26.8,10.1-30.1,23.7l-21.6-7c-2.6-0.8-5.3-1.3-8-1.3c-11.2,0-21.1,7.2-24.6,17.9c-4.4,13.6,3.1,28.2,16.6,32.6l25.6,8.3
			c0.7,11.9,4.5,23.4,10.9,33.4l-15.8,21.8c-8.4,11.6-5.8,27.8,5.7,36.1c4.4,3.2,9.7,4.9,15.2,4.9c8.3,0,16.1-4,20.9-10.7l15.8-21.8
			c5.7,1.5,11.6,2.2,17.6,2.2s11.8-0.7,17.6-2.2l15.8,21.8c4.8,6.7,12.7,10.7,20.9,10.7c5.5,0,10.7-1.7,15.2-4.9
			c11.5-8.4,14.1-24.6,5.7-36.1l-15.8-21.8c6.4-10,10.1-21.5,10.9-33.4l25.6-8.3c13.6-4.4,21-19,16.6-32.6
			c-3.5-10.7-13.4-17.9-24.6-17.9c-2.7,0-5.4,0.4-8,1.3l-21.6,7c-3.3-13.6-15.5-23.7-30.1-23.7c-0.8,0-1.6,0-2.4,0.1v-22.8
			C262-77.1,250.4-88.7,236.2-88.7L236.2-88.7z"/>
	</g>
	<line class="st10" x1="187" y1="-1" x2="193" y2="-1"/>
	<line class="st10" x1="189.4" y1="-5.4" x2="191.1" y2="-1"/>
</g>
<g id="quirkbots-hover" class="st4">
	<g class="st8">
		<path class="st9" d="M236.2-76.7c7.7,0,13.9,6.2,13.9,13.9v35.7c1.7,0.4,3.3,0.9,4.9,1.4c2.8-1.6,6-2.5,9.4-2.5
			c10.4,0,19,8.5,19,19c0,1.4-0.2,2.7-0.4,3.9c1,1.4,2,2.7,2.9,4.2l33.9-11c1.4-0.5,2.9-0.7,4.3-0.7c5.8,0,11.3,3.7,13.2,9.6
			c2.4,7.3-1.6,15.1-8.9,17.5l-33.9,11c0.1,1.4,0.2,2.9,0.2,4.3c0,14.4-5.2,27.5-13.9,37.7l21,28.9c4.5,6.2,3.1,14.9-3.1,19.4
			c-2.5,1.8-5.3,2.7-8.1,2.7c-4.3,0-8.5-2-11.2-5.7l-21-28.9c-6.8,2.8-14.3,4.4-22.1,4.4s-15.3-1.6-22.1-4.4l-21,28.9
			c-2.7,3.7-6.9,5.7-11.2,5.7c-2.8,0-5.7-0.9-8.1-2.7c-6.2-4.5-7.6-13.2-3.1-19.4l21-28.9c-8.6-10.2-13.9-23.3-13.9-37.7
			c0-1.5,0.1-2.9,0.2-4.3l-33.9-11c-7.3-2.4-11.3-10.2-8.9-17.5c1.9-5.9,7.3-9.6,13.2-9.6c1.4,0,2.9,0.2,4.3,0.7l34,11
			c0.9-1.4,1.9-2.8,2.9-4.2c-0.3-1.3-0.4-2.6-0.4-3.9c0-10.4,8.5-19,19-19c3.4,0,6.7,0.9,9.4,2.5c1.6-0.6,3.2-1,4.9-1.4v-35.8
			C222.3-70.5,228.5-76.7,236.2-76.7 M236.2-88.7c-14.3,0-25.9,11.6-25.9,25.9v22.7c-0.8-0.1-1.6-0.1-2.4-0.1
			c-14.6,0-26.8,10.1-30.1,23.7l-21.6-7c-2.6-0.8-5.3-1.3-8-1.3c-11.2,0-21.1,7.2-24.6,17.9c-4.4,13.6,3.1,28.2,16.6,32.6l25.6,8.3
			c0.7,11.9,4.5,23.4,10.9,33.4l-15.8,21.8c-8.4,11.6-5.8,27.8,5.7,36.1c4.4,3.2,9.7,4.9,15.2,4.9c8.3,0,16.1-4,20.9-10.7l15.8-21.8
			c5.7,1.5,11.6,2.2,17.6,2.2s11.8-0.7,17.6-2.2l15.8,21.8c4.8,6.7,12.7,10.7,20.9,10.7c5.5,0,10.7-1.7,15.2-4.9
			c11.5-8.4,14.1-24.6,5.7-36.1l-15.8-21.8c6.4-10,10.1-21.5,10.9-33.4l25.6-8.3c13.6-4.4,21-19,16.6-32.6
			c-3.5-10.7-13.4-17.9-24.6-17.9c-2.7,0-5.4,0.4-8,1.3l-21.6,7c-3.3-13.6-15.5-23.7-30.1-23.7c-0.8,0-1.6,0-2.4,0.1v-22.8
			C262-77.1,250.4-88.7,236.2-88.7L236.2-88.7z"/>
	</g>
	<line class="st10" x1="187" y1="-1" x2="193" y2="-1"/>
	<line class="st10" x1="189.4" y1="-5.4" x2="191.1" y2="-1"/>
	<path class="st11" d="M236-76.7c7.7,0,13.9,6.2,13.9,13.9v35.7c1.7,0.4,3.3,0.9,4.9,1.4c2.8-1.6,6-2.5,9.4-2.5c10.4,0,19,8.5,19,19
		c0,1.4-0.2,2.7-0.4,3.9c1,1.4,2,2.7,2.9,4.2l33.9-11c1.4-0.5,2.9-0.7,4.3-0.7c5.8,0,11.3,3.7,13.2,9.6c2.4,7.3-1.6,15.1-8.9,17.5
		l-33.9,11c0.1,1.4,0.2,2.9,0.2,4.3c0,14.4-5.2,27.5-13.9,37.7l21,28.9c4.5,6.2,3.1,14.9-3.1,19.4c-2.5,1.8-5.3,2.7-8.1,2.7
		c-4.3,0-8.5-2-11.2-5.7l-21-28.9c-6.8,2.8-14.3,4.4-22.1,4.4s-15.3-1.6-22.1-4.4l-21,28.9c-2.7,3.7-6.9,5.7-11.2,5.7
		c-2.8,0-5.7-0.9-8.1-2.7c-6.2-4.5-7.6-13.2-3.1-19.4l21-28.9C183,57.1,177.7,44,177.7,29.6c0-1.5,0.1-2.9,0.2-4.3l-33.9-11
		c-7.3-2.4-11.3-10.2-8.9-17.5c1.9-5.9,7.3-9.6,13.2-9.6c1.4,0,2.9,0.2,4.3,0.7l34,11c0.9-1.4,1.9-2.8,2.9-4.2
		c-0.3-1.3-0.4-2.6-0.4-3.9c0-10.4,8.5-19,19-19c3.4,0,6.7,0.9,9.4,2.5c1.6-0.6,3.2-1,4.9-1.4v-35.8C222.1-70.5,228.3-76.7,236-76.7
		"/>
</g>
<g id="add-to-profile" class="st4">
	<path class="st12" d="M200.5,97c-5.4,0-10.9-0.6-16.2-1.7c-3.2-0.7-5.3-3.9-4.6-7.1c0.7-3.2,3.9-5.3,7.1-4.6
		c4.8,1,9.7,1.5,14.7,1.4c1.5,0,3.1-0.1,4.6-0.2c3.3-0.3,6.2,2.2,6.5,5.5c0.3,3.3-2.2,6.2-5.5,6.5c-1.8,0.2-3.6,0.2-5.4,0.3
		C201.3,97,200.9,97,200.5,97z"/>
	<path class="st12" d="M156.8,81.9c-1.3,0-2.6-0.4-3.7-1.3c-6-4.7-11.3-10.3-15.7-16.6c-1.9-2.7-1.2-6.5,1.5-8.4
		c2.7-1.9,6.5-1.2,8.4,1.5c3.7,5.3,8.2,10,13.3,14c2.6,2,3.1,5.8,1,8.4C160.3,81.1,158.6,81.9,156.8,81.9z"/>
	<path class="st12" d="M130.4,37.1c-2.9,0-5.5-2.1-5.9-5.1c-0.6-3.5-0.9-7.2-0.9-10.8c0-0.4,0-0.8,0-1.2c0-3.6,0.3-7.2,0.8-10.8
		c0.5-3.3,3.5-5.6,6.8-5.1c3.3,0.5,5.6,3.5,5.1,6.8c-0.4,3-0.6,6.1-0.6,9.1c0,0.4,0,0.7,0,1.1c0,3.1,0.3,6.1,0.8,9.1
		c0.5,3.3-1.7,6.3-5,6.9C131,37.1,130.7,37.1,130.4,37.1z"/>
	<path class="st12" d="M141.7-13.7c-1.2,0-2.3-0.3-3.4-1c-2.7-1.9-3.5-5.6-1.6-8.3c4.3-6.4,9.5-12,15.5-16.8
		c2.6-2.1,6.4-1.7,8.4,0.9c2.1,2.6,1.7,6.4-0.9,8.4c-5,4.1-9.4,8.9-13.1,14.2C145.5-14.6,143.6-13.7,141.7-13.7z"/>
	<path class="st12" d="M184.5-43.2c-2.7,0-5.2-1.9-5.8-4.7c-0.7-3.2,1.3-6.4,4.5-7.2c5.3-1.2,10.7-1.9,16.1-2c2.2,0,4.5,0,6.7,0.2
		c3.3,0.2,5.8,3.1,5.6,6.4c-0.2,3.3-3.1,5.8-6.4,5.6c-1.9-0.1-3.8-0.2-5.6-0.2c-4.6,0.1-9.2,0.6-13.6,1.6
		C185.4-43.2,185-43.2,184.5-43.2z"/>
	<path class="st12" d="M271.5,97c-42.4,0-77-34.5-77-77c0-42.4,34.5-77,77-77c42.4,0,77,34.5,77,77C348.5,62.4,313.9,97,271.5,97z
		 M271.5-45c-35.8,0-65,29.1-65,65c0,35.8,29.2,65,65,65s65-29.2,65-65S307.3-45,271.5-45z"/>
	<g class="st8">
		<path class="st9" d="M282.1,26.4H172.7c-3.3,0-6-2.7-6-6s2.7-6,6-6h109.4c3.3,0,6,2.7,6,6C288.1,23.8,285.4,26.4,282.1,26.4z"/>
		<path class="st9" d="M282.1,26.4c-1.5,0-3.1-0.6-4.2-1.8l-25-25c-2.3-2.3-2.3-6.1,0-8.5c2.3-2.3,6.1-2.3,8.5,0l25,25
			c2.3,2.3,2.3,6.1,0,8.5C285.1,25.9,283.6,26.4,282.1,26.4z"/>
		<path class="st9" d="M257.9,50.6c-1.5,0-3.1-0.6-4.2-1.8c-2.3-2.3-2.3-6.1,0-8.5l24.2-24.1c2.3-2.3,6.1-2.3,8.5,0
			c2.3,2.3,2.3,6.1,0,8.5l-24.2,24.2C261,50,259.5,50.6,257.9,50.6z"/>
	</g>
</g>
<g id="add-to-profile-hover" class="st4">
	<path class="st11" d="M342.5,20.7c0,39.2-31.8,71-71,71s-71-31.8-71-71s31.8-71,71-71C310.7-50.2,342.5-18.4,342.5,20.7z"/>
	<path class="st12" d="M200.5,97c-5.4,0-10.9-0.6-16.2-1.7c-3.2-0.7-5.3-3.9-4.6-7.1c0.7-3.2,3.9-5.3,7.1-4.6
		c4.8,1,9.7,1.5,14.7,1.4c1.5,0,3.1-0.1,4.6-0.2c3.3-0.3,6.2,2.2,6.5,5.5c0.3,3.3-2.2,6.2-5.5,6.5c-1.8,0.2-3.6,0.2-5.4,0.3
		C201.3,97,200.9,97,200.5,97z"/>
	<path class="st12" d="M156.8,81.9c-1.3,0-2.6-0.4-3.7-1.3c-6-4.7-11.3-10.3-15.7-16.6c-1.9-2.7-1.2-6.5,1.5-8.4
		c2.7-1.9,6.5-1.2,8.4,1.5c3.7,5.3,8.2,10,13.3,14c2.6,2,3.1,5.8,1,8.4C160.3,81.1,158.6,81.9,156.8,81.9z"/>
	<path class="st12" d="M130.4,37.1c-2.9,0-5.5-2.1-5.9-5.1c-0.6-3.5-0.9-7.2-0.9-10.8c0-0.4,0-0.8,0-1.2c0-3.6,0.3-7.2,0.8-10.8
		c0.5-3.3,3.5-5.6,6.8-5.1c3.3,0.5,5.6,3.5,5.1,6.8c-0.4,3-0.6,6.1-0.6,9.1c0,0.4,0,0.7,0,1.1c0,3.1,0.3,6.1,0.8,9.1
		c0.5,3.3-1.7,6.3-5,6.9C131,37.1,130.7,37.1,130.4,37.1z"/>
	<path class="st12" d="M141.7-13.7c-1.2,0-2.3-0.3-3.4-1c-2.7-1.9-3.5-5.6-1.6-8.3c4.3-6.4,9.5-12,15.5-16.8
		c2.6-2.1,6.4-1.7,8.4,0.9c2.1,2.6,1.7,6.4-0.9,8.4c-5,4.1-9.4,8.9-13.1,14.2C145.5-14.6,143.6-13.7,141.7-13.7z"/>
	<path class="st12" d="M184.5-43.2c-2.7,0-5.2-1.9-5.8-4.7c-0.7-3.2,1.3-6.4,4.5-7.2c5.3-1.2,10.7-1.9,16.1-2c2.2,0,4.5,0,6.7,0.2
		c3.3,0.2,5.8,3.1,5.6,6.4c-0.2,3.3-3.1,5.8-6.4,5.6c-1.9-0.1-3.8-0.2-5.6-0.2c-4.6,0.1-9.2,0.6-13.6,1.6
		C185.4-43.2,185-43.2,184.5-43.2z"/>
	<path class="st12" d="M271.5,97c-42.4,0-77-34.5-77-77c0-42.4,34.5-77,77-77c42.4,0,77,34.5,77,77C348.5,62.4,313.9,97,271.5,97z
		 M271.5-45c-35.8,0-65,29.1-65,65c0,35.8,29.2,65,65,65s65-29.2,65-65S307.3-45,271.5-45z"/>
	<g class="st8">
		<path class="st9" d="M282.1,26.4H172.7c-3.3,0-6-2.7-6-6s2.7-6,6-6h109.4c3.3,0,6,2.7,6,6C288.1,23.8,285.4,26.4,282.1,26.4z"/>
		<path class="st9" d="M282.1,26.4c-1.5,0-3.1-0.6-4.2-1.8l-25-25c-2.3-2.3-2.3-6.1,0-8.5c2.3-2.3,6.1-2.3,8.5,0l25,25
			c2.3,2.3,2.3,6.1,0,8.5C285.1,25.9,283.6,26.4,282.1,26.4z"/>
		<path class="st9" d="M257.9,50.6c-1.5,0-3.1-0.6-4.2-1.8c-2.3-2.3-2.3-6.1,0-8.5l24.2-24.1c2.3-2.3,6.1-2.3,8.5,0
			c2.3,2.3,2.3,6.1,0,8.5l-24.2,24.2C261,50,259.5,50.6,257.9,50.6z"/>
	</g>
</g>
</svg>
