<?xml version="1.0" standalone="no"?>
<!DOCTYPE svg PUBLIC "-//W3C//DTD SVG 20010904//EN"
 "http://www.w3.org/TR/2001/REC-SVG-20010904/DTD/svg10.dtd">
<svg version="1.0" xmlns="http://www.w3.org/2000/svg"
 width="500.000000pt" height="500.000000pt" viewBox="0 0 500.000000 500.000000"
 preserveAspectRatio="xMidYMid meet">
<metadata>
Created by potrace 1.11, written by Peter Selinger 2001-2013
</metadata>
<g transform="translate(0.000000,500.000000) scale(0.100000,-0.100000)"
fill="#000000" stroke="none">
<path d="M2274 4629 c-646 -58 -1225 -448 -1523 -1029 -147 -287 -211 -550
-211 -875 0 -325 64 -588 211 -875 349 -679 1081 -1092 1830 -1031 76 6 151
14 167 17 27 5 31 2 62 -53 81 -144 196 -252 345 -324 97 -47 192 -69 305 -69
76 0 90 3 137 30 139 80 162 273 46 382 -38 36 -110 68 -156 68 -103 0 -193
53 -242 141 l-30 54 -6 315 c-7 356 -10 374 -86 530 -40 81 -61 109 -142 191
-82 81 -110 102 -191 142 -124 61 -207 80 -345 79 -127 0 -227 -22 -326 -72
-269 -135 -410 -361 -432 -693 l-2 -38 -75 52 c-157 110 -342 325 -431 500
-132 263 -185 570 -144 841 31 205 87 370 180 527 213 360 548 599 965 688
121 26 420 25 540 -1 297 -64 521 -186 731 -395 174 -175 275 -336 349 -560
51 -153 72 -286 72 -446 0 -161 -21 -293 -73 -448 -82 -250 -234 -478 -419
-633 l-70 -58 0 -249 c0 -202 3 -253 15 -277 l15 -30 78 46 c251 148 476 365
642 619 114 175 216 423 259 631 159 780 -157 1552 -817 1994 -352 235 -798
348 -1228 309z m291 -2817 c63 -32 121 -101 141 -168 19 -68 15 -125 -15 -186
-100 -208 -385 -210 -487 -2 -24 48 -26 63 -22 128 10 158 123 260 278 252 40
-2 80 -11 105 -24z"/>
</g>
</svg>
